<?xml version="1.0" standalone="no"?><svg xmlns="http://www.w3.org/2000/svg" viewBox="0 0 1440 320"><path fill="#53686D" fill-opacity="1" d="M0,160L30,149.3C60,139,120,117,180,128C240,139,300,181,360,181.3C420,181,480,139,540,117.3C600,96,660,96,720,128C780,160,840,224,900,218.7C960,213,1020,139,1080,144C1140,149,1200,235,1260,234.7C1320,235,1380,149,1410,106.7L1440,64L1440,320L1410,320C1380,320,1320,320,1260,320C1200,320,1140,320,1080,320C1020,320,960,320,900,320C840,320,780,320,720,320C660,320,600,320,540,320C480,320,420,320,360,320C300,320,240,320,180,320C120,320,60,320,30,320L0,320Z"></path></svg>